<?xml version="1.0" standalone="no"?>
<!DOCTYPE svg PUBLIC "-//W3C//DTD SVG 20010904//EN"
 "http://www.w3.org/TR/2001/REC-SVG-20010904/DTD/svg10.dtd">
<svg version="1.0" xmlns="http://www.w3.org/2000/svg"
 width="413.000000pt" height="390.000000pt" viewBox="0 0 413.000000 390.000000"
 preserveAspectRatio="xMidYMid meet">

<g transform="translate(0.000000,390.000000) scale(0.100000,-0.100000)"
fill="#000000" stroke="none">
<path d="M0 1950 l0 -1950 2065 0 2065 0 0 1950 0 1950 -2065 0 -2065 0 0
-1950z m2312 1801 c307 -53 558 -161 798 -342 356 -268 603 -667 686 -1109
135 -717 -170 -1438 -782 -1846 -704 -469 -1634 -387 -2253 201 -259 246 -452
608 -523 981 -32 168 -32 494 0 665 138 752 746 1342 1497 1454 144 21 441 19
577 -4z"/>
<path d="M1822 2903 c-21 -8 -34 -51 -21 -74 9 -17 6 -25 -15 -44 -37 -35 -38
-79 -3 -107 25 -20 89 -23 136 -7 24 9 35 9 44 0 16 -16 31 -13 45 10 9 15 10
24 2 33 -5 8 -9 24 -8 37 3 21 -1 24 -34 24 -51 0 -66 17 -34 39 31 20 34 56
8 79 -18 16 -90 22 -120 10z m75 -57 c-4 -9 -11 -16 -17 -16 -17 0 -24 31 -9
41 18 11 34 -5 26 -25z m3 -127 c0 -10 -39 -19 -56 -12 -14 5 -19 44 -8 56 7
6 64 -32 64 -44z"/>
<path d="M650 2793 c-12 -60 -25 -114 -28 -121 -3 -10 6 -13 39 -10 39 3 44 6
51 36 11 40 31 38 38 -4 5 -26 9 -29 49 -32 l43 -3 -6 36 c-6 28 -3 40 8 48
19 14 42 116 33 140 -5 14 -22 17 -105 17 l-99 0 -23 -107z m150 66 c0 -5 -5
-30 -11 -55 -10 -37 -15 -44 -36 -44 -24 0 -25 2 -19 38 12 64 16 72 42 72 13
0 24 -5 24 -11z"/>
<path d="M920 2890 c0 -12 45 -24 59 -15 22 13 10 25 -24 25 -19 0 -35 -4 -35
-10z"/>
<path d="M2146 2883 c-5 -18 -46 -211 -46 -219 0 -3 38 -3 85 -2 88 3 118 21
45 26 -23 2 -40 8 -40 15 0 7 9 52 20 101 11 50 20 91 20 93 0 2 -18 3 -39 3
-29 0 -41 -5 -45 -17z"/>
<path d="M2332 2798 c-30 -138 -29 -140 11 -136 31 3 32 4 53 88 39 160 39
150 -5 150 l-38 0 -21 -102z"/>
<path d="M2930 2875 c-5 -14 -16 -25 -25 -25 -19 0 -19 -10 1 -24 13 -10 14
-19 5 -52 -6 -21 -11 -56 -11 -76 l0 -38 44 0 c46 0 70 15 41 26 -12 5 -14 14
-10 38 17 84 26 104 48 111 19 6 19 8 5 12 -11 3 -18 14 -18 29 0 21 -5 24
-35 24 -29 0 -37 -5 -45 -25z"/>
<path d="M1315 2851 l-70 -6 -12 -48 c-6 -27 -13 -67 -15 -90 l-3 -42 88 -3
c75 -2 87 -1 87 14 0 13 -9 15 -52 12 -35 -2 -53 1 -55 10 -4 9 12 12 55 12
67 0 67 0 78 81 5 38 3 53 -7 60 -8 5 -16 8 -19 7 -3 -1 -36 -4 -75 -7z m30
-58 c-8 -46 -12 -53 -31 -53 -8 0 -14 10 -14 26 0 34 17 64 36 64 13 0 15 -7
9 -37z"/>
<path d="M910 2846 c0 -8 -30 -151 -36 -168 -4 -15 1 -18 33 -18 l39 0 12 68
c7 37 15 79 18 95 6 26 4 27 -30 27 -20 0 -36 -2 -36 -4z"/>
<path d="M1007 2773 c-8 -43 -19 -86 -22 -95 -6 -15 -1 -18 33 -18 l39 0 18
85 c15 69 21 85 37 85 22 0 23 -25 3 -100 -20 -73 -21 -70 24 -70 l38 0 17 85
c9 47 14 90 11 95 -3 6 -46 10 -94 10 l-88 0 -16 -77z"/>
<path d="M1460 2831 c-5 -11 -10 -33 -10 -49 0 -28 3 -30 50 -36 50 -7 55 -11
44 -40 -8 -21 -44 -21 -44 0 0 11 -8 14 -32 12 -28 -2 -33 -7 -33 -28 0 -24 3
-25 65 -28 90 -4 106 2 120 43 18 53 9 65 -50 65 -42 0 -50 3 -50 19 0 10 7
25 16 32 14 11 18 11 29 -4 21 -29 91 -13 79 18 -5 12 -25 15 -90 15 -72 0
-85 -3 -94 -19z"/>
<path d="M2490 2841 c0 -6 14 -11 32 -13 17 -2 33 -9 36 -15 3 -9 -12 -13 -52
-13 -65 0 -75 -11 -79 -87 l-2 -48 87 -3 c98 -3 88 -12 112 103 8 38 12 73 10
77 -7 11 -144 10 -144 -1z m52 -87 c-7 -53 -13 -64 -32 -64 -17 0 -19 4 -14
28 10 41 24 64 37 59 7 -2 11 -13 9 -23z"/>
<path d="M2661 2761 c-12 -49 -21 -92 -21 -95 0 -4 17 -6 37 -4 37 3 38 4 50
63 7 33 15 70 18 83 3 14 13 22 25 22 24 0 24 -6 5 -85 -20 -83 -20 -85 20
-85 37 0 32 -11 66 124 17 62 11 66 -90 66 l-89 0 -21 -89z"/>
<path d="M3107 2844 c-12 -12 4 -24 34 -24 16 0 29 -4 29 -10 0 -5 -22 -10
-49 -10 -60 0 -73 -14 -75 -82 l-1 -53 85 0 85 0 17 65 c9 36 17 77 17 93 1
27 1 27 -67 27 -38 0 -72 -3 -75 -6z m53 -78 c0 -44 -14 -76 -32 -76 -17 0
-19 5 -13 33 8 34 22 57 36 57 5 0 9 -6 9 -14z"/>
<path d="M3290 2830 c-6 -12 -10 -35 -8 -53 3 -31 5 -32 51 -35 47 -3 52 -7
41 -36 -8 -20 -44 -21 -44 -1 0 16 -12 18 -48 9 -16 -5 -22 -13 -20 -28 3 -19
10 -21 79 -24 87 -3 98 4 106 68 l6 40 -52 0 c-44 0 -51 3 -51 20 0 27 36 46
48 24 13 -24 67 -15 67 11 0 18 -8 20 -82 23 -74 3 -83 1 -93 -18z"/>
<path d="M2412 2485 c-143 -32 -204 -106 -237 -290 -9 -49 -20 -102 -25 -117
-13 -41 9 -48 149 -48 l120 0 11 58 c6 31 13 71 16 87 15 83 24 103 54 115 49
20 62 8 54 -47 -22 -156 -63 -222 -374 -614 -80 -100 -153 -195 -162 -212 -9
-16 -20 -58 -24 -94 -6 -56 -4 -66 12 -78 15 -10 86 -13 335 -14 l317 -2 20
78 c46 174 56 163 -139 163 -91 0 -149 4 -149 10 0 10 68 99 280 370 62 80
121 163 131 185 24 53 39 151 39 251 0 101 -20 135 -103 178 -50 26 -70 30
-160 32 -64 2 -126 -2 -165 -11z"/>
<path d="M1105 2478 c-2 -7 -12 -57 -23 -110 l-19 -98 79 0 c45 0 78 4 78 10
0 6 -18 10 -40 10 -22 0 -40 1 -40 3 0 2 9 43 20 93 11 49 20 92 20 97 0 12
-70 8 -75 -5z"/>
<path d="M1555 2478 c-2 -7 -8 -35 -13 -63 -5 -27 -35 -164 -67 -303 -53 -234
-56 -255 -41 -270 12 -13 43 -17 140 -20 l125 -4 7 26 c11 44 74 77 74 39 0
-29 -71 -405 -82 -436 -10 -26 -51 -47 -65 -33 -6 6 11 151 23 203 8 29 -5 31
-161 35 l-129 2 -17 -94 c-33 -182 -18 -241 78 -293 171 -92 474 -30 548 113
18 34 115 514 115 567 0 53 -26 84 -92 113 -44 19 -65 22 -141 18 l-88 -4 7
40 c3 23 14 70 23 106 l16 65 162 3 161 2 35 87 c28 71 32 89 21 100 -18 19
-633 19 -639 1z"/>
<path d="M1318 2444 c-16 -16 -7 -24 28 -24 57 0 36 -24 -23 -28 -47 -3 -52
-5 -62 -34 -6 -17 -11 -44 -11 -60 l0 -29 87 3 87 3 14 78 c8 43 12 81 9 84
-9 9 -122 15 -129 7z m46 -101 c-10 -48 -13 -53 -29 -53 -16 0 -19 20 -9 58 4
13 14 22 25 22 16 0 18 -5 13 -27z"/>
<path d="M1542 1078 c-12 -57 -22 -106 -22 -110 0 -5 16 -8 35 -8 31 0 35 3
44 38 6 20 11 46 11 56 0 32 14 8 25 -42 10 -45 12 -47 47 -50 42 -4 36 -16
67 131 l19 87 -38 0 -39 0 -11 -55 c-12 -56 -30 -66 -30 -17 0 58 -10 72 -49
72 l-38 0 -21 -102z"/>
<path d="M2185 1160 c-3 -11 -13 -20 -21 -20 -17 0 -19 -27 -2 -32 9 -3 8 -19
-1 -66 -7 -34 -9 -67 -6 -72 8 -13 95 -13 95 0 0 6 -7 10 -16 10 -12 0 -15 6
-11 23 3 12 9 39 13 61 4 25 13 40 25 43 20 5 27 33 9 33 -5 0 -10 9 -10 20 0
16 -7 20 -34 20 -26 0 -36 -5 -41 -20z"/>
<path d="M1793 1128 c-12 -15 -33 -107 -33 -144 0 -25 0 -25 82 -22 l83 3 13
39 c7 21 13 60 15 85 l2 46 -76 3 c-53 2 -79 -1 -86 -10z m86 -60 c-5 -24 -11
-53 -14 -65 -3 -13 -13 -23 -22 -23 -13 0 -15 8 -9 56 8 67 11 74 36 74 16 0
17 -5 9 -42z"/>
<path d="M2011 1131 c-8 -5 -22 -45 -31 -90 l-18 -81 34 0 c36 0 33 -6 62 110
6 28 14 36 37 40 16 3 30 11 33 18 4 14 -94 17 -117 3z"/>
<path d="M2326 1125 c-17 -17 -40 -111 -35 -140 4 -18 14 -20 87 -23 52 -2 82
1 82 8 0 5 -22 10 -50 10 -38 0 -50 4 -50 15 0 11 13 15 54 15 l54 0 12 50
c18 74 13 80 -69 80 -48 0 -74 -5 -85 -15z m89 -17 c8 -22 -11 -73 -28 -76
-20 -4 -23 22 -7 62 10 28 28 34 35 14z"/>
</g>
</svg>
